<?xml version="1.0" encoding="UTF-8" standalone="no"?>
<!-- Created with Inkscape (http://www.inkscape.org/) -->

<svg
   width="256"
   height="256"
   viewBox="0 0 67.733332 67.733333"
   version="1.1"
   id="svg1"
   inkscape:version="1.3.2 (091e20ef0f, 2023-11-25, custom)"
   sodipodi:docname="penguin.svg"
   inkscape:export-filename="penguin.png"
   inkscape:export-xdpi="96"
   inkscape:export-ydpi="96"
   xmlns:inkscape="http://www.inkscape.org/namespaces/inkscape"
   xmlns:sodipodi="http://sodipodi.sourceforge.net/DTD/sodipodi-0.dtd"
   xmlns="http://www.w3.org/2000/svg"
   xmlns:svg="http://www.w3.org/2000/svg">
  <sodipodi:namedview
     id="namedview1"
     pagecolor="#ffffff"
     bordercolor="#666666"
     borderopacity="1.0"
     inkscape:showpageshadow="2"
     inkscape:pageopacity="0.0"
     inkscape:pagecheckerboard="0"
     inkscape:deskcolor="#d1d1d1"
     inkscape:document-units="mm"
     inkscape:zoom="1.4919989"
     inkscape:cx="243.63289"
     inkscape:cy="179.6248"
     inkscape:window-width="1916"
     inkscape:window-height="1026"
     inkscape:window-x="0"
     inkscape:window-y="0"
     inkscape:window-maximized="1"
     inkscape:current-layer="layer7" />
  <defs
     id="defs1" />
  <g
     inkscape:label="Penguin"
     inkscape:groupmode="layer"
     id="layer1"
     style="display:inline">
    <path
       style="fill:#323232;fill-opacity:1;stroke:none;stroke-width:0.224303px;stroke-linecap:butt;stroke-linejoin:miter;stroke-opacity:1"
       d="M 51.06528,71.423663 C 51.756207,67.333592 50.158439,65.629351 47.469935,58.491299 50.46797,49.02583 50.11226,43.704506 49.307344,39.793137 47.52264,31.120645 39.095984,25.853362 32.838147,25.564564 c -7.922088,-0.365603 -14.256133,0.695621 -19.164193,6.078411 -2.408188,2.64112 -5.3081197,11.170018 -3.7460244,15.668399 2.1731194,6.257915 1.9272744,9.282847 5.5415014,12.47562 -1.287618,2.669141 -2.919791,5.474457 -4.665305,7.867874"
       id="path11"
       sodipodi:nodetypes="ccsssscc" />
    <path
       style="fill:#f2f2f2;fill-opacity:1;stroke:none;stroke-width:0.224303px;stroke-linecap:butt;stroke-linejoin:miter;stroke-opacity:1"
       d="m 43.765516,56.833333 c 3.734572,-1.659976 2.978906,-7.776214 -0.941745,-8.629484 0.307559,-1.992737 -0.02355,-3.573617 0.401774,-5.527029 0.534796,-2.456212 -2.80257,-5.996041 -7.441673,-6.052021 -5.166066,-0.06234 -5.071248,5.438669 -4.02439,11.694252 0.07732,0.462035 -2.555247,0.860675 -2.718821,0.309532 -1.442564,-4.860585 -2.140234,-13.254374 -9.807043,-11.175057 -4.819435,1.307078 -3.6694,8.94736 -1.283251,13.39913 -1.663608,1.905737 -1.895887,8.292365 4.058583,8.287034 -0.542728,4.238805 -2.755014,7.905678 -2.19923,12.164287 0.860757,6.595383 26.897992,5.9815 26.701388,0.83707 -0.06645,-1.738702 -0.56852,-9.452069 -2.745592,-15.307714 z"
       id="path13"
       sodipodi:nodetypes="ccsssssccssc" />
    <path
       style="fill:#c9c9c9;fill-opacity:1;stroke:none;stroke-width:0.224303px;stroke-linecap:butt;stroke-linejoin:miter;stroke-opacity:1"
       d="m 41.686836,51.617566 c -0.09129,1.215439 -2.511096,8.311556 -8.040646,8.436081 -3.269835,0.07364 -10.512317,-6.077884 -10.594522,-7.77611 -0.07812,-1.613879 5.072316,-2.884685 8.504136,-3.09638 5.126254,-0.316224 10.296921,0.227725 10.131032,2.436409 z"
       id="path12"
       sodipodi:nodetypes="sssss" />
    <ellipse
       style="fill:#323232;fill-opacity:1;stroke:none;stroke-width:0.224303;stroke-linecap:round;stroke-linejoin:round;stroke-dasharray:none;stroke-opacity:1"
       id="path24"
       cx="-36.302921"
       cy="46.021885"
       rx="1.5381612"
       ry="1.6882942"
       transform="scale(-1,1)" />
    <ellipse
       style="fill:#323232;fill-opacity:1;stroke:none;stroke-width:0.207493;stroke-linecap:round;stroke-linejoin:round;stroke-dasharray:none;stroke-opacity:1"
       id="path25"
       cx="-24.421196"
       cy="47.117458"
       rx="1.4851085"
       ry="1.6908554"
       transform="scale(-1,1)" />
    <path
       style="fill:#a8a8a8;fill-opacity:1;stroke:none;stroke-width:0.224303px;stroke-linecap:butt;stroke-linejoin:miter;stroke-opacity:1"
       d="m 40.393968,55.105246 c -1.250154,2.310677 -3.443864,4.873994 -6.747778,4.948401 -1.891691,0.0426 -5.113005,-1.998323 -7.508273,-4.055105 3.816433,1.56712 4.583425,2.899793 7.780388,2.702585 3.472885,-0.22147 2.921987,-1.453731 6.475663,-3.595881 z"
       id="path22"
       sodipodi:nodetypes="cscsc" />
  </g>
  <g
     inkscape:groupmode="layer"
     id="layer7"
     inkscape:label="Snow"
     style="display:inline">
    <path
       id="path2"
       style="color:#000000;fill:#e0e0e0;fill-opacity:1;stroke:none;stroke-width:0.132292;stroke-linecap:round;stroke-linejoin:round;stroke-dasharray:none;stroke-opacity:1"
       inkscape:transform-center-x="-0.44128204"
       inkscape:transform-center-y="-2.7937354"
       d="m 57.697215,3.0660178 a 0.52916503,0.52916503 0 0 0 -0.603262,0.44346 L 56.895381,4.8059063 56.560517,4.5005392 a 0.52916503,0.52916503 0 0 0 -0.747999,0.03338 0.52916503,0.52916503 0 0 0 0.03413,0.7465446 L 56.702994,6.0619811 56.4272,7.8625762 54.994478,6.7141288 55.096178,5.5586544 A 0.52916503,0.52916503 0 0 0 54.615567,4.986298 0.52916503,0.52916503 0 0 0 54.042033,5.4677699 L 54.002178,5.9191076 52.97871,5.0989228 a 0.52916503,0.52916503 0 0 0 -0.743959,0.082095 0.52916503,0.52916503 0 0 0 0.08209,0.7439591 l 1.023469,0.8201853 -0.43193,0.1372077 a 0.52916503,0.52916503 0 0 0 -0.34487,0.664446 0.52916503,0.52916503 0 0 0 0.663581,0.3436919 l 1.105082,-0.3509134 1.421558,1.1394183 -1.711218,0.666372 -0.949896,-0.66567 a 0.52916503,0.52916503 0 0 0 -0.735598,0.129904 0.52916503,0.52916503 0 0 0 0.130181,0.737209 l 0.371059,0.2602 -1.22204,0.4762433 a 0.52916503,0.52916503 0 0 0 -0.301599,0.685712 0.52916503,0.52916503 0 0 0 0.685868,0.300578 l 1.22204,-0.476244 -0.09707,0.442575 a 0.52916503,0.52916503 0 0 0 0.403129,0.631066 0.52916503,0.52916503 0 0 0 0.629456,-0.402853 l 0.248145,-1.131998 1.697353,-0.6611773 -0.277907,1.8143873 -1.051596,0.489803 a 0.52916503,0.52916503 0 0 0 -0.255502,0.702183 0.52916503,0.52916503 0 0 0 0.703715,0.255738 l 0.410914,-0.191138 -0.198572,1.296428 a 0.52916503,0.52916503 0 0 0 0.44287,0.603694 0.52916503,0.52916503 0 0 0 0.603263,-0.443459 l 0.198572,-1.296429 0.334864,0.305368 a 0.52916503,0.52916503 0 0 0 0.747999,-0.03338 0.52916503,0.52916503 0 0 0 -0.03412,-0.746545 l -0.856347,-0.781516 0.275716,-1.8000853 1.4328,1.1479373 -0.101189,1.155553 a 0.52916503,0.52916503 0 0 0 0.480096,0.572278 0.52916503,0.52916503 0 0 0 0.573534,-0.481473 l 0.03985,-0.451337 1.023468,0.820185 a 0.52916503,0.52916503 0 0 0 0.74388,-0.08159 0.52916503,0.52916503 0 0 0 -0.0821,-0.74396 l -1.023469,-0.820183 0.432009,-0.13772 a 0.52916503,0.52916503 0 0 0 0.34487,-0.664445 0.52916503,0.52916503 0 0 0 -0.663582,-0.3436923 L 59.262506,10.168445 57.840948,9.0290267 59.552166,8.3626543 60.502061,9.0283257 A 0.52916503,0.52916503 0 0 0 61.23817,8.8984987 0.52916503,0.52916503 0 0 0 61.107479,8.1612121 L 60.736419,7.9010118 61.95846,7.424768 a 0.52916503,0.52916503 0 0 0 0.301521,-0.685201 0.52916503,0.52916503 0 0 0 -0.68579,-0.3010881 l -1.22204,0.4762438 0.09707,-0.4425748 A 0.52916503,0.52916503 0 0 0 60.046603,5.8411641 0.52916503,0.52916503 0 0 0 59.416636,6.2439386 L 59.168413,7.3764475 57.47106,8.0376242 57.749045,6.2227265 58.800641,5.7329231 A 0.52916503,0.52916503 0 0 0 59.056143,5.0307403 0.52916503,0.52916503 0 0 0 58.352428,4.7750035 L 57.941514,4.9661409 58.140086,3.6697124 A 0.52916503,0.52916503 0 0 0 57.697215,3.0660178 Z" />
    <path
       id="path8"
       style="color:#000000;fill:#e0e0e0;fill-opacity:1;stroke:none;stroke-width:0.132292;stroke-linecap:round;stroke-linejoin:round;stroke-dasharray:none;stroke-opacity:1"
       inkscape:transform-center-x="0.43763526"
       inkscape:transform-center-y="-2.7943222"
       d="m 26.917753,1.6171152 a 0.52916503,0.52916503 0 0 0 -0.43797,0.6072604 l 0.209062,1.2947783 -0.412448,-0.1878043 a 0.52916503,0.52916503 0 0 0 -0.701621,0.2614258 0.52916503,0.52916503 0 0 0 0.261688,0.7000088 L 26.891399,4.77363 27.181762,6.5719332 25.465633,5.9188445 25.207656,4.7879546 A 0.52916503,0.52916503 0 0 0 24.574532,4.3908038 0.52916503,0.52916503 0 0 0 24.176526,5.0251127 L 24.277172,5.466887 23.051316,5.0005526 a 0.52916503,0.52916503 0 0 0 -0.682821,0.3065481 0.52916503,0.52916503 0 0 0 0.306549,0.6828199 l 1.225855,0.4663345 -0.368941,0.263196 A 0.52916503,0.52916503 0 0 0 23.40775,7.4576896 0.52916503,0.52916503 0 0 0 24.144804,7.5810419 L 25.088769,6.9077847 26.7915,7.5557086 25.367531,8.7152894 24.259135,8.3734173 a 0.52916503,0.52916503 0 0 0 -0.660184,0.3494801 0.52916503,0.52916503 0 0 0 0.350238,0.6616325 l 0.433026,0.1337059 -1.016794,0.8284432 a 0.52916503,0.52916503 0 0 0 -0.0765,0.745192 0.52916503,0.52916503 0 0 0 0.745028,0.07548 l 1.016793,-0.828443 0.04351,0.451 a 0.52916503,0.52916503 0 0 0 0.577413,0.476812 0.52916503,0.52916503 0 0 0 0.475365,-0.576656 l -0.111395,-1.1535097 1.412369,-1.15038 0.292587,1.8120767 -0.85042,0.789017 a 0.52916503,0.52916503 0 0 0 -0.02757,0.746714 0.52916503,0.52916503 0 0 0 0.748245,0.02732 l 0.332381,-0.308069 0.209061,1.294779 a 0.52916503,0.52916503 0 0 0 0.606833,0.438561 0.52916503,0.52916503 0 0 0 0.437969,-0.60726 l -0.209062,-1.294779 0.412448,0.187805 a 0.52916503,0.52916503 0 0 0 0.701621,-0.261426 0.52916503,0.52916503 0 0 0 -0.261688,-0.700009 l -1.054935,-0.480845 -0.290281,-1.7977932 1.716047,0.6525791 0.258487,1.1308071 a 0.52916503,0.52916503 0 0 0 0.632613,0.397233 0.52916503,0.52916503 0 0 0 0.398006,-0.6343093 L 31.399698,9.3368035 32.625554,9.8031377 A 0.52916503,0.52916503 0 0 0 33.308456,9.4970997 0.52916503,0.52916503 0 0 0 33.001908,8.8142795 L 31.776052,8.347946 32.14491,8.084239 A 0.52916503,0.52916503 0 0 0 32.269119,7.346001 0.52916503,0.52916503 0 0 0 31.532064,7.2226487 L 30.588099,7.8959055 28.885368,7.2479824 30.309337,6.0884011 31.417733,6.4302738 A 0.52916503,0.52916503 0 0 0 32.078431,6.0807101 0.52916503,0.52916503 0 0 0 31.727682,5.4191603 L 31.294656,5.2854541 32.31145,4.4570101 A 0.52916503,0.52916503 0 0 0 32.38803,3.7123284 0.52916503,0.52916503 0 0 0 31.64292,3.6363414 L 30.626126,4.4647854 30.582616,4.013785 A 0.52916503,0.52916503 0 0 0 30.005717,3.5368893 0.52916503,0.52916503 0 0 0 29.529842,4.1136283 L 29.641319,5.2676494 28.22895,6.4180293 27.93628,4.6054416 28.786702,3.816424 A 0.52916503,0.52916503 0 0 0 28.814272,3.06971 0.52916503,0.52916503 0 0 0 28.066028,3.042387 L 27.733646,3.3504551 27.524585,2.0556767 A 0.52916503,0.52916503 0 0 0 26.917753,1.6171152 Z" />
    <path
       id="path9"
       style="color:#000000;fill:#e0e0e0;fill-opacity:1;stroke:none;stroke-width:0.132292;stroke-linecap:round;stroke-linejoin:round;stroke-dasharray:none;stroke-opacity:1"
       inkscape:transform-center-x="-1.0149002"
       inkscape:transform-center-y="-1.4741145"
       d="M 43.373845,7.5103349 A 0.33485583,0.33485583 0 0 0 42.90837,7.5987119 L 42.440943,8.2845144 42.333194,8.0187452 A 0.33485583,0.33485583 0 0 0 41.897099,7.8335077 0.33485583,0.33485583 0 0 0 41.712685,8.2689754 l 0.275379,0.6799945 -0.649205,0.9525032 -0.504174,-1.046866 0.373633,-0.6317995 A 0.33485583,0.33485583 0 0 0 41.090295,7.7648291 0.33485583,0.33485583 0 0 0 40.631409,7.8830239 L 40.485391,8.1297749 40.125175,7.3820643 A 0.33485583,0.33485583 0 0 0 39.678082,7.2257384 0.33485583,0.33485583 0 0 0 39.521756,7.6728319 l 0.360216,0.7477105 -0.284031,-0.039646 a 0.33485583,0.33485583 0 0 0 -0.378333,0.2850932 0.33485583,0.33485583 0 0 0 0.284921,0.3774245 l 0.726651,0.1015065 0.500268,1.0386629 -1.158807,-0.08698 -0.360419,-0.6394158 A 0.33485583,0.33485583 0 0 0 38.756843,9.3304347 0.33485583,0.33485583 0 0 0 38.629809,9.7868081 l 0.140746,0.2498719 -0.827643,-0.06191 a 0.33485583,0.33485583 0 0 0 -0.359442,0.3090509 0.33485583,0.33485583 0 0 0 0.309419,0.3589 l 0.827644,0.06191 -0.176283,0.226123 a 0.33485583,0.33485583 0 0 0 0.05776,0.470331 0.33485583,0.33485583 0 0 0 0.469336,-0.05805 l 0.450818,-0.578401 1.149473,0.08616 -0.654178,0.959799 -0.734053,-0.0076 a 0.33485583,0.33485583 0 0 0 -0.337626,0.331043 0.33485583,0.33485583 0 0 0 0.331853,0.338178 l 0.286764,0.0031 -0.467428,0.685803 a 0.33485583,0.33485583 0 0 0 0.08792,0.46556 0.33485583,0.33485583 0 0 0 0.465474,-0.08838 l 0.467428,-0.685803 0.107749,0.26577 a 0.33485583,0.33485583 0 0 0 0.436094,0.185237 0.33485583,0.33485583 0 0 0 0.184415,-0.435468 l -0.275379,-0.679994 0.649021,-0.952233 0.504358,1.046596 -0.373364,0.631983 a 0.33485583,0.33485583 0 0 0 0.117752,0.457795 0.33485583,0.33485583 0 0 0 0.458888,-0.118196 l 0.146017,-0.24675 0.360216,0.74771 a 0.33485583,0.33485583 0 0 0 0.446909,0.156596 0.33485583,0.33485583 0 0 0 0.156326,-0.447094 l -0.360216,-0.74771 0.284215,0.03937 a 0.33485583,0.33485583 0 0 0 0.378333,-0.285093 0.33485583,0.33485583 0 0 0 -0.284922,-0.377424 l -0.72665,-0.101507 -0.500268,-1.038662 1.158807,0.08698 0.360419,0.639416 a 0.33485583,0.33485583 0 0 0 0.455649,0.126936 0.33485583,0.33485583 0 0 0 0.126763,-0.456557 l -0.140745,-0.249872 0.827644,0.06191 a 0.33485583,0.33485583 0 0 0 0.359257,-0.30878 0.33485583,0.33485583 0 0 0 -0.309235,-0.359171 l -0.827644,-0.06191 0.176283,-0.226123 a 0.33485583,0.33485583 0 0 0 -0.05749,-0.4701469 0.33485583,0.33485583 0 0 0 -0.469606,0.05786 l -0.451003,0.5786709 -1.149473,-0.08616 0.654362,-0.9600697 0.734054,0.00762 A 0.33485583,0.33485583 0 0 0 43.612956,9.0029978 0.33485583,0.33485583 0 0 0 43.281104,8.6648193 l -0.286764,-0.00312 0.467427,-0.6858024 a 0.33485583,0.33485583 0 0 0 -0.08792,-0.4655623 z" />
    <path
       id="path18"
       style="color:#000000;fill:#e0e0e0;fill-opacity:1;stroke:none;stroke-width:0.132292;stroke-linecap:round;stroke-linejoin:round;stroke-dasharray:none;stroke-opacity:1"
       inkscape:transform-center-x="-0.22405668"
       inkscape:transform-center-y="-1.4184719"
       d="m 50.705628,18.687873 a 0.26867518,0.26867518 0 0 0 -0.306297,0.225159 l -0.100822,0.658242 -0.170022,-0.155046 a 0.26867518,0.26867518 0 0 0 -0.379784,0.01695 0.26867518,0.26867518 0 0 0 0.01733,0.379046 l 0.434796,0.396803 -0.14003,0.914224 -0.727442,-0.583107 0.05164,-0.586673 a 0.26867518,0.26867518 0 0 0 -0.244022,-0.290605 0.26867518,0.26867518 0 0 0 -0.291203,0.24446 l -0.02023,0.229159 -0.51965,-0.416436 a 0.26867518,0.26867518 0 0 0 -0.377734,0.04168 0.26867518,0.26867518 0 0 0 0.04168,0.377734 l 0.519651,0.416436 -0.219306,0.06967 a 0.26867518,0.26867518 0 0 0 -0.175102,0.337362 0.26867518,0.26867518 0 0 0 0.336922,0.174504 l 0.561088,-0.178171 0.721774,0.578522 -0.868844,0.338339 -0.482295,-0.337983 a 0.26867518,0.26867518 0 0 0 -0.373488,0.06596 0.26867518,0.26867518 0 0 0 0.0661,0.374306 l 0.1884,0.132112 -0.620472,0.241806 a 0.26867518,0.26867518 0 0 0 -0.153132,0.348159 0.26867518,0.26867518 0 0 0 0.348239,0.152614 l 0.620471,-0.241806 -0.04929,0.224711 a 0.26867518,0.26867518 0 0 0 0.204682,0.320414 0.26867518,0.26867518 0 0 0 0.319596,-0.204543 l 0.125992,-0.574754 0.861804,-0.335702 -0.141103,0.921227 -0.533931,0.248689 a 0.26867518,0.26867518 0 0 0 -0.129727,0.356523 0.26867518,0.26867518 0 0 0 0.3573,0.129846 l 0.208635,-0.09705 -0.100822,0.658241 a 0.26867518,0.26867518 0 0 0 0.224861,0.306516 0.26867518,0.26867518 0 0 0 0.306297,-0.225159 l 0.100822,-0.658242 0.170022,0.155046 a 0.26867518,0.26867518 0 0 0 0.379784,-0.01695 0.26867518,0.26867518 0 0 0 -0.01732,-0.379046 l -0.434796,-0.396803 0.13999,-0.913965 0.727482,0.582847 -0.05138,0.586714 a 0.26867518,0.26867518 0 0 0 0.243761,0.290565 0.26867518,0.26867518 0 0 0 0.291202,-0.24446 l 0.02023,-0.229159 0.519649,0.416436 a 0.26867518,0.26867518 0 0 0 0.377694,-0.04143 0.26867518,0.26867518 0 0 0 -0.04169,-0.377734 l -0.51965,-0.416435 0.219345,-0.06993 a 0.26867518,0.26867518 0 0 0 0.175103,-0.337362 0.26867518,0.26867518 0 0 0 -0.336924,-0.174504 l -0.561082,0.178171 -0.721774,-0.578522 0.868844,-0.33834 0.482294,0.337984 a 0.26867518,0.26867518 0 0 0 0.373748,-0.06592 0.26867518,0.26867518 0 0 0 -0.06636,-0.374345 l -0.1884,-0.132113 0.620472,-0.241805 a 0.26867518,0.26867518 0 0 0 0.153093,-0.3479 0.26867518,0.26867518 0 0 0 -0.3482,-0.152873 l -0.620471,0.241805 0.04929,-0.22471 A 0.26867518,0.26867518 0 0 0 51.898493,20.0969 0.26867518,0.26867518 0 0 0 51.578637,20.301402 l -0.126031,0.575014 -0.861804,0.335702 0.141142,-0.921486 0.533931,-0.24869 a 0.26867518,0.26867518 0 0 0 0.129727,-0.356522 0.26867518,0.26867518 0 0 0 -0.3573,-0.129846 l -0.208635,0.09705 0.100822,-0.658241 a 0.26867518,0.26867518 0 0 0 -0.224861,-0.306517 z" />
  </g>
  <g
     inkscape:groupmode="layer"
     id="layer5"
     inkscape:label="Scarf"
     style="display:inline">
    <path
       id="path14"
       style="fill:#d8d8d8;fill-opacity:1;stroke:none;stroke-width:0.264583px;stroke-linecap:butt;stroke-linejoin:miter;stroke-opacity:1"
       d="m 48.147511,56.282785 c 0,0.04442 -2.373309,0.82545 -5.367282,1.706639 -1.770814,8.45e-4 -4.746993,-0.363307 -5.180725,1.431086 -0.912587,0.231992 -1.850402,0.443169 -2.800898,0.618035 -2.667344,0.490721 -15.670422,0.423305 -19.318943,-0.931644 -1.792167,-0.932703 -1.38778,1.354006 -2.041725,2.641898 -0.657896,1.295673 -1.427312,2.513904 -0.64462,2.971429 1.560684,0.912305 19.487149,2.213824 23.544223,0.03385 1.129696,-0.607015 2.008576,-0.782241 3.207083,-0.54801 2.416684,0.472306 5.612542,-0.23596 6.825043,-0.936869 5.600684,1.646387 17.774117,3.908535 18.227234,2.746938 0.692022,-1.774037 1.382026,-8.14367 -0.948263,-7.824329 -1.96051,0.268667 -6.172059,2.64926 -15.275533,1.428521 -0.467742,-0.699437 0.830735,-3.321801 -0.225594,-3.337546 z"
       sodipodi:nodetypes="sccscsssscsscss" />
    <path
       style="fill:#a8a8a8;fill-opacity:1;stroke:none;stroke-width:0.264583px;stroke-linecap:butt;stroke-linejoin:miter;stroke-opacity:1"
       d="m 39.062319,64.058389 c -3.030969,-1.00461 -4.49026,-0.771464 -5.530629,0.05178 -0.654316,0.51776 -2.833028,1.328255 -5.390894,1.411631 -1.762262,0.05744 -5.241082,0.05051 -4.83772,0.436358 6.9647,0.07771 12.124746,-0.433024 15.759243,-1.899767 z"
       id="path19"
       sodipodi:nodetypes="csscc" />
    <path
       style="fill:#a8a8a8;fill-opacity:1;stroke:none;stroke-width:0.264583px;stroke-linecap:butt;stroke-linejoin:miter;stroke-opacity:1"
       d="m 46.339455,63.249299 c -2.735732,-0.35495 -6.692596,-3.410273 -7.681507,-3.413092 -0.233159,0.247386 3.567839,3.057394 4.554335,3.271689 1.999668,0.434386 2.263578,0.41312 3.127172,0.141403 z"
       id="path20"
       sodipodi:nodetypes="ccsc" />
    <path
       style="fill:#a8a8a8;fill-opacity:1;stroke:none;stroke-width:0.264583px;stroke-linecap:butt;stroke-linejoin:miter;stroke-opacity:1"
       d="m 48.307974,59.62138 c -1.849124,-0.255261 -2.931815,-0.856768 -4.338294,-1.312 1.39194,0.01886 3.086007,0.394029 4.35596,0.170756 -0.02228,0.346874 -0.07446,0.632571 -0.01767,1.141244 z"
       id="path21"
       sodipodi:nodetypes="cccc" />
  </g>
  <g
     inkscape:groupmode="layer"
     id="layer6"
     inkscape:label="Hat"
     style="display:inline">
    <path
       id="path17"
       style="fill:#d0d0d0;stroke-width:0"
       d="m 36.102179,20.786617 a 6.6095314,4.063807 0 0 1 -6.609532,4.063807 6.6095314,4.063807 0 0 1 -6.609531,-4.063807 6.6095314,4.063807 0 0 1 6.609531,-4.063807 6.6095314,4.063807 0 0 1 6.609532,4.063807 z" />
    <path
       id="path28"
       style="fill:#a8a8a8;fill-opacity:1;stroke-width:0"
       d="m 36.102179,20.786617 c 0,2.244379 -2.959188,4.063807 -6.609532,4.063807 -2.275936,0 -4.283196,-0.707274 -5.472077,-1.783842 1.572951,0.377034 5.692664,0.134173 6.478556,-0.176421 3.65779,-1.445599 4.159356,-2.707884 4.736825,-4.116184 0.551229,0.593358 0.866228,1.280382 0.866228,2.01264 z"
       sodipodi:nodetypes="sscscs" />
    <path
       style="fill:#d0d0d0;fill-opacity:1;stroke:none;stroke-width:0.264583px;stroke-linecap:butt;stroke-linejoin:miter;stroke-opacity:1"
       d="m 9.9930933,40.577113 c 6.5963817,-3.506465 13.7444377,-5.939342 22.4843747,-5.992454 5.518363,-0.03353 14.197343,1.580632 15.782836,2.261362 0.219092,0.09407 0.508529,1.058937 0.626979,1.37508 0.512956,-0.118627 1.22494,-0.476195 1.35312,-1.03438 0.205925,-0.896743 -0.827848,-4.035389 -1.234,-4.681115 -3.192606,-5.075795 -4.742668,-7.188292 -12.574493,-9.808829 -7.831825,-2.620538 -23.248176,4.969876 -26.06302,10.824349 -1.8353094,3.817183 -2.4714738,5.342122 -2.06943,6.867404 0.1175146,0.445829 0.7074947,1.216766 1.4023667,1.190481 0.1719027,-0.458515 0.1260982,-0.991346 0.2912666,-1.001898 z"
       id="path16"
       sodipodi:nodetypes="csscssssscc" />
    <path
       style="fill:#a8a8a8;fill-opacity:1;stroke:none;stroke-width:0.264583px;stroke-linecap:butt;stroke-linejoin:miter;stroke-opacity:1"
       d="m 9.9930933,40.577113 c 6.5963817,-3.506465 13.7444377,-5.939342 22.4843747,-5.992454 5.518363,-0.03353 14.197343,1.580632 15.782836,2.261362 0.219092,0.09407 0.508529,1.058937 0.626979,1.37508 0.512956,-0.118627 1.30513,-1.304438 0.792395,-1.559593 -0.923328,-0.459479 -3.35473,-1.506335 -8.719482,-2.223474 -3.86569,-0.516751 -9.316558,-1.07796 -16.530802,-0.107753 -4.197685,0.564525 -15.5715297,4.356325 -15.1694859,5.881607 0.1175146,0.445829 -0.2529534,1.393408 0.4419186,1.367123 0.1719027,-0.458515 0.1260982,-0.991346 0.2912666,-1.001898 z"
       id="path27"
       sodipodi:nodetypes="csscsssscc" />
  </g>
  <g
     inkscape:groupmode="layer"
     id="layer3"
     inkscape:label="Sunglasses"
     style="display:inline">
    <path
       style="fill:#000000;fill-opacity:1;stroke:none;stroke-width:0.276146px;stroke-linecap:butt;stroke-linejoin:miter;stroke-opacity:1"
       d="m 27.032474,41.530609 c 1.050811,0.927873 3.648825,0.789288 4.380032,-0.274268 0.981928,-1.428237 8.51548,-2.805224 10.337719,-1.25827 0.764144,0.648704 7.16422,-0.400117 8.012276,-0.584237 0.07602,0.76892 0.272929,2.605202 0.272929,2.605202 0,0 -5.661614,0.386052 -6.934414,1.667254 -1.748772,1.760313 0.655172,6.104674 -6.494542,6.120054 -6.03353,0.01297 -3.444899,-5.159738 -6.540777,-4.649748 -2.747221,0.452555 -0.65424,4.725372 -4.058959,5.243227 -10.061656,1.530369 -6.749867,-2.770787 -9.988418,-3.338827 -1.373879,-0.240977 -6.16706,1.036042 -6.16706,1.036042 l -0.5943488,-2.7182 c 0,0 5.7484368,-1.172929 6.4847568,-2.193124 1.790708,-2.481084 9.686569,-3.071657 11.290806,-1.655105 z"
       id="path1"
       sodipodi:nodetypes="sssccsssssccss" />
  </g>
  <g
     inkscape:groupmode="layer"
     id="layer2"
     inkscape:label="Umbrella"
     style="display:inline">
    <path
       id="path10"
       style="fill:#808080;fill-opacity:1;stroke:none;stroke-width:0.245047px;stroke-linecap:butt;stroke-linejoin:miter;stroke-opacity:1"
       d="m 38.687531,13.714235 3.190886,17.142056 5.025898,40.68139 -2.792825,0.210321 -5.083673,-41.149058 z"
       sodipodi:nodetypes="cccccc" />
    <path
       style="fill:#323232;fill-opacity:1;stroke:none;stroke-width:0.224303px;stroke-linecap:butt;stroke-linejoin:miter;stroke-opacity:1"
       d="m 39.168296,67.610131 c -0.781669,-2.673403 5.519975,-7.504159 6.800449,-7.680775 1.280474,-0.176617 3.25293,0.04898 4.032529,2.095948 0.779599,2.046965 4.320912,7.469663 3.864879,9.264123 -0.456029,1.794456 -14.697857,-3.679296 -14.697857,-3.679296 z"
       id="path23" />
    <path
       id="path29"
       style="fill:#b2b2b2;fill-opacity:1;stroke:none;stroke-width:0.245047px;stroke-linecap:butt;stroke-linejoin:miter;stroke-opacity:1"
       d="m 38.687531,13.714235 c 8.803553,-0.59836 29.72945,0.904551 38.603072,10.175641 0.05117,0.474556 -0.914745,0.889483 -1.409468,0.360634 -1.221786,-1.306052 -7.524909,-0.248249 -8.396658,2.241287 -2.196156,-0.61432 -6.560728,-0.397438 -10.56894,2.567597 -5.199217,0.193965 -8.804605,-0.452457 -12.828149,2.27846 -3.220115,-0.960056 -9.50336,-0.893891 -14.117093,0.778045 C 26.020407,30.32251 23.564076,29.6075 17.600955,30.166424 15.140134,27.458238 13.116819,27.511674 8.7299019,27.479781 7.0692612,25.376624 6.6873452,23.700993 3.747728,24.838995 2.7089045,24.012494 1.7171603,25.122251 2.6933264,23.85837 5.7343982,22.209936 16.191359,15.243253 38.687531,13.714235 Z"
       sodipodi:nodetypes="scsccccccccs" />
    <path
       id="path30"
       style="fill:#d3d3d3;fill-opacity:1;stroke:none;stroke-width:0.245047px;stroke-linecap:butt;stroke-linejoin:miter;stroke-opacity:1"
       d="M 38.687531,13.714235 C 25.347952,16.906611 14.083556,21.704069 8.7299019,27.479781 7.0692612,25.376624 6.6873452,23.700993 3.747728,24.838995 c 8.205491,-4.68708 18.301701,-9.468874 34.939803,-11.12476 z"
       sodipodi:nodetypes="cccc" />
    <path
       id="path31"
       style="fill:#d3d3d3;fill-opacity:1;stroke:none;stroke-width:0.245047px;stroke-linecap:butt;stroke-linejoin:miter;stroke-opacity:1"
       d="M 38.687531,13.714235 C 34.217589,19.410068 31.099848,25.484587 29.970295,32.115899 26.020407,30.32251 23.564076,29.6075 17.600955,30.166424 20.102658,25.226088 26.862183,19.774374 38.687531,13.714235 Z"
       sodipodi:nodetypes="cccc" />
    <path
       id="path32"
       style="fill:#d3d3d3;fill-opacity:1;stroke:none;stroke-width:0.245047px;stroke-linecap:butt;stroke-linejoin:miter;stroke-opacity:1"
       d="m 38.687531,13.714235 c 6.473591,4.908585 15.572843,8.453663 18.228006,15.345159 -5.199217,0.193965 -8.804605,-0.452457 -12.828149,2.27846 -1.082487,-9.549299 -3.500266,-12.259415 -5.399857,-17.623619 z"
       sodipodi:nodetypes="cccc" />
    <path
       id="path33"
       style="fill:#d3d3d3;fill-opacity:1;stroke:none;stroke-width:0.245716px;stroke-linecap:butt;stroke-linejoin:miter;stroke-opacity:1"
       d="m 38.687531,13.681758 c 8.829209,-0.599881 29.816092,0.90685 38.715577,10.201503 0.05132,0.475764 -0.917412,0.891745 -1.413577,0.361552 -1.225346,-1.309371 -7.546838,-0.248881 -8.421129,2.246984 -5.47524,-3.618554 -3.727545,-5.814449 -28.880871,-12.810039 z"
       sodipodi:nodetypes="ccscc" />
  </g>
</svg>
