<?xml version="1.0" encoding="UTF-8" standalone="no"?>
<!-- Created with Inkscape (http://www.inkscape.org/) -->

<svg
   width="256"
   height="256"
   viewBox="0 0 67.733332 67.733333"
   version="1.1"
   id="svg1"
   inkscape:version="1.3.2 (091e20ef0f, 2023-11-25, custom)"
   sodipodi:docname="penguin.svg"
   inkscape:export-filename="penguin.png"
   inkscape:export-xdpi="96"
   inkscape:export-ydpi="96"
   xmlns:inkscape="http://www.inkscape.org/namespaces/inkscape"
   xmlns:sodipodi="http://sodipodi.sourceforge.net/DTD/sodipodi-0.dtd"
   xmlns="http://www.w3.org/2000/svg"
   xmlns:svg="http://www.w3.org/2000/svg">
  <sodipodi:namedview
     id="namedview1"
     pagecolor="#ffffff"
     bordercolor="#666666"
     borderopacity="1.0"
     inkscape:showpageshadow="2"
     inkscape:pageopacity="0.0"
     inkscape:pagecheckerboard="0"
     inkscape:deskcolor="#d1d1d1"
     inkscape:document-units="mm"
     inkscape:zoom="1.4919989"
     inkscape:cx="96.849937"
     inkscape:cy="156.83658"
     inkscape:window-width="1362"
     inkscape:window-height="714"
     inkscape:window-x="0"
     inkscape:window-y="0"
     inkscape:window-maximized="1"
     inkscape:current-layer="layer7" />
  <defs
     id="defs1" />
  <g
     inkscape:label="Penguin"
     inkscape:groupmode="layer"
     id="layer1"
     style="display:inline">
    <path
       style="fill:#323232;fill-opacity:1;stroke:none;stroke-width:0.224303px;stroke-linecap:butt;stroke-linejoin:miter;stroke-opacity:1"
       d="M 51.06528,71.423663 C 51.756207,67.333592 50.158439,65.629351 47.469935,58.491299 50.46797,49.02583 50.11226,43.704506 49.307344,39.793137 47.52264,31.120645 39.095984,25.853362 32.838147,25.564564 c -7.922088,-0.365603 -14.256133,0.695621 -19.164193,6.078411 -2.408188,2.64112 -5.3081197,11.170018 -3.7460244,15.668399 2.1731194,6.257915 1.9272744,9.282847 5.5415014,12.47562 -1.287618,2.669141 -2.919791,5.474457 -4.665305,7.867874"
       id="path11"
       sodipodi:nodetypes="ccsssscc" />
    <path
       style="fill:#f2f2f2;fill-opacity:1;stroke:none;stroke-width:0.224303px;stroke-linecap:butt;stroke-linejoin:miter;stroke-opacity:1"
       d="m 43.765516,56.833333 c 3.734572,-1.659976 2.978906,-7.776214 -0.941745,-8.629484 0.307559,-1.992737 -0.02355,-3.573617 0.401774,-5.527029 0.534796,-2.456212 -2.80257,-5.996041 -7.441673,-6.052021 -5.166066,-0.06234 -5.071248,5.438669 -4.02439,11.694252 0.07732,0.462035 -2.555247,0.860675 -2.718821,0.309532 -1.442564,-4.860585 -2.140234,-13.254374 -9.807043,-11.175057 -4.819435,1.307078 -3.6694,8.94736 -1.283251,13.39913 -1.663608,1.905737 -1.895887,8.292365 4.058583,8.287034 -0.542728,4.238805 -2.755014,7.905678 -2.19923,12.164287 0.860757,6.595383 26.897992,5.9815 26.701388,0.83707 -0.06645,-1.738702 -0.56852,-9.452069 -2.745592,-15.307714 z"
       id="path13"
       sodipodi:nodetypes="ccsssssccssc" />
    <path
       style="fill:#c9c9c9;fill-opacity:1;stroke:none;stroke-width:0.224303px;stroke-linecap:butt;stroke-linejoin:miter;stroke-opacity:1"
       d="m 41.686836,51.617566 c -0.09129,1.215439 -2.511096,8.311556 -8.040646,8.436081 -3.269835,0.07364 -10.512317,-6.077884 -10.594522,-7.77611 -0.07812,-1.613879 5.072316,-2.884685 8.504136,-3.09638 5.126254,-0.316224 10.296921,0.227725 10.131032,2.436409 z"
       id="path12"
       sodipodi:nodetypes="sssss" />
    <ellipse
       style="fill:#323232;fill-opacity:1;stroke:none;stroke-width:0.224303;stroke-linecap:round;stroke-linejoin:round;stroke-dasharray:none;stroke-opacity:1"
       id="path24"
       cx="-36.302921"
       cy="46.021885"
       rx="1.5381612"
       ry="1.6882942"
       transform="scale(-1,1)" />
    <ellipse
       style="fill:#323232;fill-opacity:1;stroke:none;stroke-width:0.207493;stroke-linecap:round;stroke-linejoin:round;stroke-dasharray:none;stroke-opacity:1"
       id="path25"
       cx="-24.421196"
       cy="47.117458"
       rx="1.4851085"
       ry="1.6908554"
       transform="scale(-1,1)" />
  </g>
  <g
     inkscape:groupmode="layer"
     id="layer7"
     inkscape:label="Snow"
     style="display:inline">
    <g
       id="g29">
      <path
         style="fill:none;stroke:#000000;stroke-width:0.264583px;stroke-linecap:butt;stroke-linejoin:miter;stroke-opacity:1"
         d="m 43.514221,20.099099 -2.452208,-3.372132 -2.104467,3.994882"
         id="path18" />
      <path
         style="fill:none;stroke:#000000;stroke-width:0.264583px;stroke-linecap:butt;stroke-linejoin:miter;stroke-opacity:1"
         d="m 36.555214,17.305383 4.520652,-0.355362 -2.570662,-3.284158"
         id="path19" />
      <path
         style="fill:none;stroke:#000000;stroke-width:0.264583px;stroke-linecap:butt;stroke-linejoin:miter;stroke-opacity:1"
         d="m 43.138076,13.914548 -2.209757,2.903857 4.558059,0.200194"
         id="path20" />
      <path
         style="fill:none;stroke:#000000;stroke-width:0.264583px;stroke-linecap:butt;stroke-linejoin:miter;stroke-opacity:1"
         d="M 35.828557,18.974131 36.822602,17.180694 35.78076,15.793881"
         id="path21" />
      <path
         style="fill:none;stroke:#000000;stroke-width:0.264583px;stroke-linecap:butt;stroke-linejoin:miter;stroke-opacity:1"
         d="m 36.961146,14.17293 1.842619,0.03256 0.861734,-1.830843"
         id="path22" />
      <path
         style="fill:none;stroke:#000000;stroke-width:0.264583px;stroke-linecap:butt;stroke-linejoin:miter;stroke-opacity:1"
         d="m 42.731454,13.198281 0.568717,1.611253 2.671106,-0.770298"
         id="path26" />
      <path
         style="fill:none;stroke:#000000;stroke-width:0.264583px;stroke-linecap:butt;stroke-linejoin:miter;stroke-opacity:1"
         d="m 46.143761,15.308981 -0.916458,1.70754 1.278056,1.465783"
         id="path27" />
      <path
         style="fill:none;stroke:#000000;stroke-width:0.264583px;stroke-linecap:butt;stroke-linejoin:miter;stroke-opacity:1"
         d="m 45.354761,19.549084 -1.664592,0.227903 -0.967721,1.345943"
         id="path28" />
      <path
         style="fill:none;stroke:#000000;stroke-width:0.264583px;stroke-linecap:butt;stroke-linejoin:miter;stroke-opacity:1"
         d="M 39.855304,21.149253 39.225627,19.592725 37.85336,21.230301"
         id="path29" />
    </g>
    <g
       id="g38"
       transform="matrix(0.43047608,0.44041182,-0.61377645,0.59992956,18.334937,-21.10701)">
      <path
         style="fill:none;stroke:#000000;stroke-width:0.264583px;stroke-linecap:butt;stroke-linejoin:miter;stroke-opacity:1"
         d="m 43.514221,20.099099 -2.452208,-3.372132 -2.104467,3.994882"
         id="path30" />
      <path
         style="fill:none;stroke:#000000;stroke-width:0.264583px;stroke-linecap:butt;stroke-linejoin:miter;stroke-opacity:1"
         d="m 36.555214,17.305383 4.520652,-0.355362 -2.570662,-3.284158"
         id="path31" />
      <path
         style="fill:none;stroke:#000000;stroke-width:0.264583px;stroke-linecap:butt;stroke-linejoin:miter;stroke-opacity:1"
         d="m 43.138076,13.914548 -2.209757,2.903857 4.558059,0.200194"
         id="path32" />
      <path
         style="fill:none;stroke:#000000;stroke-width:0.264583px;stroke-linecap:butt;stroke-linejoin:miter;stroke-opacity:1"
         d="M 35.828557,18.974131 36.822602,17.180694 35.78076,15.793881"
         id="path33" />
      <path
         style="fill:none;stroke:#000000;stroke-width:0.264583px;stroke-linecap:butt;stroke-linejoin:miter;stroke-opacity:1"
         d="m 36.961146,14.17293 1.842619,0.03256 0.861734,-1.830843"
         id="path34" />
      <path
         style="fill:none;stroke:#000000;stroke-width:0.264583px;stroke-linecap:butt;stroke-linejoin:miter;stroke-opacity:1"
         d="m 42.731454,13.198281 0.568717,1.611253 2.671106,-0.770298"
         id="path35" />
      <path
         style="fill:none;stroke:#000000;stroke-width:0.264583px;stroke-linecap:butt;stroke-linejoin:miter;stroke-opacity:1"
         d="m 46.143761,15.308981 -0.916458,1.70754 1.278056,1.465783"
         id="path36" />
      <path
         style="fill:none;stroke:#000000;stroke-width:0.264583px;stroke-linecap:butt;stroke-linejoin:miter;stroke-opacity:1"
         d="m 45.354761,19.549084 -1.664592,0.227903 -0.967721,1.345943"
         id="path37" />
      <path
         style="fill:none;stroke:#000000;stroke-width:0.264583px;stroke-linecap:butt;stroke-linejoin:miter;stroke-opacity:1"
         d="M 39.855304,21.149253 39.225627,19.592725 37.85336,21.230301"
         id="path38" />
    </g>
    <g
       id="g47"
       transform="matrix(0.43047608,0.44041182,-0.61377645,0.59992956,44.072728,-22.869275)">
      <path
         style="fill:none;stroke:#000000;stroke-width:0.264583px;stroke-linecap:butt;stroke-linejoin:miter;stroke-opacity:1"
         d="m 43.514221,20.099099 -2.452208,-3.372132 -2.104467,3.994882"
         id="path39" />
      <path
         style="fill:none;stroke:#000000;stroke-width:0.264583px;stroke-linecap:butt;stroke-linejoin:miter;stroke-opacity:1"
         d="m 36.555214,17.305383 4.520652,-0.355362 -2.570662,-3.284158"
         id="path40" />
      <path
         style="fill:none;stroke:#000000;stroke-width:0.264583px;stroke-linecap:butt;stroke-linejoin:miter;stroke-opacity:1"
         d="m 43.138076,13.914548 -2.209757,2.903857 4.558059,0.200194"
         id="path41" />
      <path
         style="fill:none;stroke:#000000;stroke-width:0.264583px;stroke-linecap:butt;stroke-linejoin:miter;stroke-opacity:1"
         d="M 35.828557,18.974131 36.822602,17.180694 35.78076,15.793881"
         id="path42" />
      <path
         style="fill:none;stroke:#000000;stroke-width:0.264583px;stroke-linecap:butt;stroke-linejoin:miter;stroke-opacity:1"
         d="m 36.961146,14.17293 1.842619,0.03256 0.861734,-1.830843"
         id="path43" />
      <path
         style="fill:none;stroke:#000000;stroke-width:0.264583px;stroke-linecap:butt;stroke-linejoin:miter;stroke-opacity:1"
         d="m 42.731454,13.198281 0.568717,1.611253 2.671106,-0.770298"
         id="path44" />
      <path
         style="fill:none;stroke:#000000;stroke-width:0.264583px;stroke-linecap:butt;stroke-linejoin:miter;stroke-opacity:1"
         d="m 46.143761,15.308981 -0.916458,1.70754 1.278056,1.465783"
         id="path45" />
      <path
         style="fill:none;stroke:#000000;stroke-width:0.264583px;stroke-linecap:butt;stroke-linejoin:miter;stroke-opacity:1"
         d="m 45.354761,19.549084 -1.664592,0.227903 -0.967721,1.345943"
         id="path46" />
      <path
         style="fill:none;stroke:#000000;stroke-width:0.264583px;stroke-linecap:butt;stroke-linejoin:miter;stroke-opacity:1"
         d="M 39.855304,21.149253 39.225627,19.592725 37.85336,21.230301"
         id="path47" />
    </g>
  </g>
  <g
     inkscape:groupmode="layer"
     id="layer5"
     inkscape:label="Scarf"
     style="display:inline">
    <path
       style="fill:#d8d8d8;fill-opacity:1;stroke:none;stroke-width:0.264583px;stroke-linecap:butt;stroke-linejoin:miter;stroke-opacity:1"
       d="m 15.57914,58.864764 c -1.501805,2.909398 -4.370334,4.140351 -2.809649,5.052655 1.560685,0.912305 20.028441,2.360771 24.559484,1.535054 4.531045,-0.825714 9.833078,-1.357717 11.223355,-2.80272 1.390276,-1.445001 -0.959409,-5.91647 -1.470634,-6.71032 -0.511223,-0.793851 -8.002233,2.357998 -10.611686,3.097125 -2.609453,0.739124 -17.242345,1.183156 -20.89087,-0.171794 z"
       id="path14" />
    <path
       style="fill:#d6d6d6;fill-opacity:1;stroke:none;stroke-width:0.264583px;stroke-linecap:butt;stroke-linejoin:miter;stroke-opacity:1"
       d="m 42.195292,57.799369 c 14.488808,1.718625 17.156451,-1.26074 19.486739,-1.580081 2.330291,-0.319342 1.640348,6.050166 0.948325,7.824205 -0.69202,1.774042 -18.091613,-5.058198 -19.50267,-4.211701"
       id="path15" />
  </g>
  <g
     inkscape:groupmode="layer"
     id="layer6"
     inkscape:label="Hat"
     style="display:inline">
    <path
       style="fill:#d0d0d0;fill-opacity:1;stroke:none;stroke-width:0.264583px;stroke-linecap:butt;stroke-linejoin:miter;stroke-opacity:1"
       d="M 9.9930933,40.577113 C 20.754406,34.856679 44.317075,34.735455 48.280785,36.776191 c 3.96371,2.040734 1.27113,-1.771965 1.27113,-1.771965 0,0 -5.28818,-9.686912 -13.120005,-12.307449 -7.831825,-2.620538 -24.862892,5.387929 -26.6556364,11.025929 -1.7927439,5.638001 -1.8107546,6.983945 0.2168197,6.854407 z"
       id="path16" />
    <ellipse
       style="fill:#d0d0d0;fill-opacity:1;stroke:none;stroke-width:0;stroke-opacity:1"
       id="path17"
       cx="29.492647"
       cy="20.786617"
       rx="6.6095314"
       ry="4.063807" />
  </g>
  <g
     inkscape:groupmode="layer"
     id="layer3"
     inkscape:label="Sunglasses"
     style="display:inline">
    <path
       style="fill:#000000;fill-opacity:1;stroke:none;stroke-width:0.264583px;stroke-linecap:butt;stroke-linejoin:miter;stroke-opacity:1"
       d="m 16.680555,44.044147 c 4.64257,-3.024391 8.418554,-2.213224 10.351919,-1.759495 1.933365,0.453729 3.649217,0.991968 4.362021,0.0021 0.712803,-0.989891 6.316858,-2.196597 9.186082,-1.392357 2.869221,0.804241 7.866459,-1.326546 8.89514,-2.369775 1.028679,-1.043228 0.701027,4.057227 0.701027,4.057227 0,0 -6.559309,0.03671 -7.709215,1.902193 -1.149905,1.865479 1.11042,6.132597 -4.92312,6.137447 -6.03354,0.0048 -5.754375,-4.812284 -7.858839,-4.720847 -2.104467,0.09144 -1.034222,6.907744 -4.850385,6.555846 C 21.019023,52.104604 17.399592,47.530612 16.01832,47.361591 14.637048,47.19257 9.9536085,48.999166 9.9536085,48.999166 L 8.5792637,45.74341 c 0,0 6.7927543,-1.160989 8.1012913,-1.699226 z"
       id="path1" />
  </g>
  <g
     inkscape:groupmode="layer"
     id="layer2"
     inkscape:label="Umbrella"
     style="display:none">
    <path
       id="path10"
       style="fill:#b2b2b2;fill-opacity:1;stroke:none;stroke-width:0.270768px;stroke-linecap:butt;stroke-linejoin:miter;stroke-opacity:1"
       d="m 40.930668,7.936585 c 9.524283,-0.6752799 32.163343,1.0208313 41.763432,11.483721 0.05536,0.535561 -0.989634,1.003826 -1.524859,0.406994 -1.321811,-1.473945 -8.140958,-0.280162 -9.084076,2.529405 -2.375951,-0.69329 -7.097842,-0.448529 -11.434199,2.897663 -5.624867,0.218898 -9.525421,-0.510621 -13.878365,2.571356 -0.732524,-0.227821 -1.540451,-0.406593 -2.389815,-0.543468 l 5.437359,45.910991 -3.021468,0.237358 -5.499864,-46.438778 c -3.48795,-0.113116 -7.211422,0.441208 -9.799044,1.711959 C 27.226511,26.679857 24.569085,25.872933 18.117775,26.503706 15.455491,23.447382 13.266531,23.507688 8.5204661,23.471694 6.7238713,21.098176 6.310689,19.207143 3.1304105,20.491435 2.0065405,19.558688 0.9336041,20.811104 1.989687,19.384751 5.2797253,17.52441 16.592778,9.6621585 40.930668,7.936585 Z"
       sodipodi:nodetypes="scsccccccccccccs" />
    <path
       style="fill:#323232;fill-opacity:1;stroke:none;stroke-width:0.224303px;stroke-linecap:butt;stroke-linejoin:miter;stroke-opacity:1"
       d="m 41.263756,68.268902 c -0.781669,-2.673403 5.519975,-7.504159 6.800449,-7.680775 1.280474,-0.176617 3.25293,0.04898 4.032529,2.095948 0.779599,2.046965 4.320912,7.469663 3.864879,9.264123 -0.456029,1.794456 -14.697857,-3.679296 -14.697857,-3.679296 z"
       id="path23" />
  </g>
</svg>
